<svg width="60" height="60" viewBox="0 0 60 60" fill="none" xmlns="http://www.w3.org/2000/svg">
<path d="M60 45.0002C60 46.7683 59.2976 48.464 58.0474 49.7142C56.7971 50.9644 55.1014 51.6668 53.3333 51.6668H40V8.3335H53.3333C55.1014 8.3335 56.7971 9.03587 58.0474 10.2861C59.2976 11.5364 60 13.2321 60 15.0002V45.0002Z" fill="#ED2939"/>
<path d="M6.66667 8.3335C4.89856 8.3335 3.20286 9.03587 1.95262 10.2861C0.702379 11.5364 0 13.2321 0 15.0002L0 45.0002C0 46.7683 0.702379 48.464 1.95262 49.7142C3.20286 50.9644 4.89856 51.6668 6.66667 51.6668H20V8.3335H6.66667Z" fill="#002495"/>
<path d="M20 8.3335H40V51.6668H20V8.3335Z" fill="#EEEEEE"/>
</svg>
