<svg width="61" height="61" viewBox="0 0 61 61" fill="none" xmlns="http://www.w3.org/2000/svg">
<path d="M25.8101 53.4229V38.4229H30.8101M38.3101 8.42285V53.4229M38.3101 13.4229H49.3101C50.7103 13.4229 51.4103 13.4229 51.9451 13.6953C52.4156 13.935 52.7978 14.3175 53.0376 14.7879C53.3101 15.3227 53.3101 16.0227 53.3101 17.4229V19.4229C53.3101 20.823 53.3101 21.5231 53.0376 22.0578C52.7978 22.5282 52.4156 22.9107 51.9451 23.1504C51.4103 23.4229 50.7103 23.4229 49.3101 23.4229H38.3101M13.3101 25.9229V41.4229C13.3101 45.6234 13.3101 47.7234 14.1275 49.3279C14.8466 50.7391 15.9939 51.8864 17.4051 52.6054C19.0095 53.4229 21.1097 53.4229 25.3101 53.4229H30.8101M8.31006 30.9229L30.8101 8.42285" stroke="black" stroke-width="5" stroke-linecap="round" stroke-linejoin="round"/>
</svg>
