<svg width="51" height="36" viewBox="0 0 51 36" fill="none" xmlns="http://www.w3.org/2000/svg">
<path fill-rule="evenodd" clip-rule="evenodd" d="M25.6847 0.5C27.105 0.502478 41.4007 0.552034 45.1034 1.54316C47.2559 2.11449 48.9484 3.80363 49.5259 5.96474C50.5291 9.70867 50.5692 17.3444 50.5708 17.9492V18.0258C50.5692 18.6325 50.5291 26.2911 49.5259 30.035C48.9484 32.1961 47.2559 33.8853 45.1034 34.4566C41.2838 35.479 26.1916 35.4995 25.5894 35.4999H25.5523C24.9501 35.4995 9.85536 35.479 6.03336 34.4566C3.88336 33.8853 2.18836 32.1961 1.61336 30.035C0.612556 26.2911 0.572524 18.6325 0.570923 18.0258V17.9492C0.572524 17.3444 0.612556 9.70867 1.61336 5.96474C2.18836 3.80363 3.88336 2.11449 6.03336 1.54316C9.73836 0.552034 24.0364 0.502478 25.457 0.5H25.6847ZM20.4559 10.6099V25.3899L33.5259 17.9874L20.4559 10.6099Z" fill="#E9E7E4"/>
</svg>
