<svg width="61" height="61" viewBox="0 0 61 61" fill="none" xmlns="http://www.w3.org/2000/svg">
<path d="M42.7564 28.1416C35.8529 28.1416 30.2564 33.7381 30.2564 40.6416C30.2564 47.5451 35.8529 53.1416 42.7564 53.1416C49.6599 53.1416 55.2564 47.5451 55.2564 40.6416C55.2564 33.7381 49.6599 28.1416 42.7564 28.1416ZM42.7564 28.1416V23.1416M42.7564 23.1416V21.1416C42.7564 18.3414 42.7564 16.9412 42.2114 15.8717C41.7322 14.9308 40.9672 14.1659 40.0264 13.6866C38.9569 13.1416 37.5567 13.1416 34.7564 13.1416H13.2564C10.4562 13.1416 9.05601 13.1416 7.98646 13.6866C7.04563 14.1659 6.28073 14.9308 5.80138 15.8717C5.25641 16.9412 5.25641 18.3414 5.25641 21.1416V23.1416M42.7564 23.1416H5.25641M5.25641 23.1416V40.1416C5.25641 42.9419 5.25641 44.3421 5.80138 45.4116C6.28073 46.3524 7.04563 47.1174 7.98646 47.5966C9.05601 48.1416 10.4562 48.1416 13.2564 48.1416H32.7564M12.7564 8.1416V13.1416M35.2564 8.1416V13.1416M37.7564 40.6416H42.7564M42.7564 40.6416H47.7564M42.7564 40.6416V35.6416M42.7564 40.6416V45.6416" stroke="black" stroke-width="5" stroke-linecap="round" stroke-linejoin="round"/>
</svg>
