<svg width="51" height="50" viewBox="0 0 51 50" fill="none" xmlns="http://www.w3.org/2000/svg">
<path d="M25.4291 0.0996094C11.6791 0.0996094 0.429077 11.3246 0.429077 25.1497C0.429077 37.6497 9.57908 48.0247 21.5291 49.8997V32.3997H15.1791V25.1497H21.5291V19.6246C21.5291 13.3496 25.2541 9.89961 30.9791 9.89961C33.7041 9.89961 36.5541 10.3746 36.5541 10.3746V16.5496H33.4041C30.3041 16.5496 29.3291 18.4746 29.3291 20.4497V25.1497H36.2791L35.1541 32.3997H29.3291V49.8997C35.2201 48.9692 40.5846 45.9634 44.4538 41.4247C48.3231 36.8862 50.4426 31.1137 50.4291 25.1497C50.4291 11.3246 39.1791 0.0996094 25.4291 0.0996094Z" fill="#E9E7E4"/>
</svg>
