<svg width="61" height="61" viewBox="0 0 61 61" fill="none" xmlns="http://www.w3.org/2000/svg">
<path d="M8.31006 23.4229H53.3101M18.3101 8.42285V13.4229M43.3101 8.42285V13.4229M25.8101 35.9229L30.8101 30.9229M30.8101 30.9229L35.8101 35.9229M30.8101 30.9229V45.9229M16.3101 53.4229H45.3101C48.1103 53.4229 49.5106 53.4229 50.5801 52.8779C51.5208 52.3986 52.2858 51.6336 52.7651 50.6929C53.3101 49.6234 53.3101 48.2231 53.3101 45.4228V21.4229C53.3101 18.6226 53.3101 17.2225 52.7651 16.1529C52.2858 15.2121 51.5208 14.4472 50.5801 13.9678C49.5106 13.4229 48.1103 13.4229 45.3101 13.4229H16.3101C13.5098 13.4229 12.1097 13.4229 11.0401 13.9678C10.0993 14.4472 9.33438 15.2121 8.85503 16.1529C8.31006 17.2225 8.31006 18.6226 8.31006 21.4229V45.4228C8.31006 48.2231 8.31006 49.6234 8.85503 50.6929C9.33438 51.6336 10.0993 52.3986 11.0401 52.8779C12.1097 53.4229 13.5098 53.4229 16.3101 53.4229Z" stroke="black" stroke-width="5" stroke-linecap="round" stroke-linejoin="round"/>
</svg>
