<svg width="61" height="61" viewBox="0 0 61 61" fill="none" xmlns="http://www.w3.org/2000/svg">
<path d="M7.78784 23.0547H52.7878M22.7878 38.0547L27.7878 43.0547L37.7878 33.0547M17.7878 8.05469V13.0547M42.7878 8.05469V13.0547M15.7878 53.0547H44.7878C47.5881 53.0547 48.9883 53.0547 50.0578 52.5097C50.9986 52.0304 51.7636 51.2654 52.2428 50.3247C52.7878 49.2552 52.7878 47.8549 52.7878 45.0547V21.0547C52.7878 18.2544 52.7878 16.8543 52.2428 15.7847C51.7636 14.8439 50.9986 14.079 50.0578 13.5997C48.9883 13.0547 47.5881 13.0547 44.7878 13.0547H15.7878C12.9876 13.0547 11.5874 13.0547 10.5179 13.5997C9.57707 14.079 8.81217 14.8439 8.33282 15.7847C7.78784 16.8543 7.78784 18.2544 7.78784 21.0547V45.0547C7.78784 47.8549 7.78784 49.2552 8.33282 50.3247C8.81217 51.2654 9.57707 52.0304 10.5179 52.5097C11.5874 53.0547 12.9876 53.0547 15.7878 53.0547Z" stroke="black" stroke-width="5" stroke-linecap="round" stroke-linejoin="round"/>
</svg>
