<svg width="56" height="56" viewBox="0 0 56 56" fill="none" xmlns="http://www.w3.org/2000/svg">
<path fill-rule="evenodd" clip-rule="evenodd" d="M28.0707 43C36.355 43 43.0707 36.2843 43.0707 28C43.0707 19.7157 36.355 13 28.0707 13C19.7865 13 13.0707 19.7157 13.0707 28C13.0707 36.2843 19.7865 43 28.0707 43ZM28.0707 38C33.5935 38 38.0707 33.5228 38.0707 28C38.0707 22.4771 33.5935 18 28.0707 18C22.5479 18 18.0707 22.4771 18.0707 28C18.0707 33.5228 22.5479 38 28.0707 38Z" fill="#E9E7E4"/>
<path d="M43.0707 10.5C41.69 10.5 40.5707 11.6193 40.5707 13C40.5707 14.3807 41.69 15.5 43.0707 15.5C44.4515 15.5 45.5707 14.3807 45.5707 13C45.5707 11.6193 44.4515 10.5 43.0707 10.5Z" fill="#E9E7E4"/>
<path fill-rule="evenodd" clip-rule="evenodd" d="M2.20564 8.69015C0.57074 11.8988 0.57074 16.0992 0.57074 24.5V31.5C0.57074 39.9007 0.57074 44.1012 2.20564 47.3097C3.64374 50.1322 5.93844 52.427 8.76089 53.865C11.9696 55.5 16.17 55.5 24.5707 55.5H31.5707C39.9715 55.5 44.172 55.5 47.3805 53.865C50.203 52.427 52.4977 50.1322 53.9357 47.3097C55.5707 44.1012 55.5707 39.9007 55.5707 31.5V24.5C55.5707 16.0992 55.5707 11.8988 53.9357 8.69015C52.4977 5.8677 50.203 3.573 47.3805 2.1349C44.172 0.5 39.9715 0.5 31.5707 0.5H24.5707C16.17 0.5 11.9696 0.5 8.76089 2.1349C5.93844 3.573 3.64374 5.8677 2.20564 8.69015ZM31.5707 5.5H24.5707C20.2878 5.5 17.3764 5.5039 15.1259 5.68775C12.9338 5.86685 11.8128 6.19148 11.0308 6.58993C9.14921 7.54868 7.61941 9.07847 6.66067 10.9601C6.26222 11.7421 5.93759 12.8631 5.75849 15.0552C5.57464 17.3056 5.57074 20.2171 5.57074 24.5V31.5C5.57074 35.783 5.57464 38.6943 5.75849 40.9448C5.93759 43.137 6.26222 44.258 6.66067 45.04C7.61941 46.9215 9.14921 48.4512 11.0308 49.41C11.8128 49.8085 12.9338 50.1333 15.1259 50.3122C17.3764 50.496 20.2878 50.5 24.5707 50.5H31.5707C35.8537 50.5 38.765 50.496 41.0155 50.3122C43.2077 50.1333 44.3287 49.8085 45.1107 49.41C46.9922 48.4512 48.522 46.9215 49.4807 45.04C49.8792 44.258 50.204 43.137 50.383 40.9448C50.5667 38.6943 50.5707 35.783 50.5707 31.5V24.5C50.5707 20.2171 50.5667 17.3056 50.383 15.0552C50.204 12.8631 49.8792 11.7421 49.4807 10.9601C48.522 9.07847 46.9922 7.54868 45.1107 6.58993C44.3287 6.19148 43.2077 5.86685 41.0155 5.68775C38.765 5.5039 35.8537 5.5 31.5707 5.5Z" fill="#E9E7E4"/>
</svg>
