<svg width="61" height="48" viewBox="0 0 61 48" fill="none" xmlns="http://www.w3.org/2000/svg">
<path fill-rule="evenodd" clip-rule="evenodd" d="M19.4409 47.9994C42.0819 47.9994 54.4659 29.5301 54.4659 13.5155C54.4659 12.9897 54.4659 12.468 54.4299 11.9481C56.8389 10.235 58.9179 8.10797 60.5709 5.67419C58.3269 6.6548 55.9419 7.29789 53.5029 7.58142C56.0709 6.06621 57.9939 3.68573 58.9149 0.876826C56.4969 2.28866 53.8539 3.28507 51.0969 3.8197C46.4349 -1.05971 38.6379 -1.29612 33.6789 3.29382C30.4839 6.25335 29.1249 10.666 30.1179 14.8749C20.2209 14.3846 10.9989 9.7829 4.74686 2.21276C1.47986 7.75079 3.15086 14.8329 8.55986 18.389C6.60086 18.3329 4.68386 17.8136 2.97086 16.8744V17.0282C2.97386 22.7967 7.10486 27.7636 12.8469 28.9066C11.0349 29.394 9.13286 29.4646 7.29086 29.1132C8.90186 34.0516 13.5249 37.4341 18.7899 37.5316C14.4309 40.9047 9.04586 42.7362 3.50186 42.7303C2.52386 42.7274 1.54586 42.6712 0.570862 42.556C6.20186 46.1122 12.7509 47.9994 19.4409 47.9906" fill="#E9E7E4"/>
</svg>
