<svg width="50" height="58" viewBox="0 0 50 58" fill="none" xmlns="http://www.w3.org/2000/svg">
<path d="M26.2316 0.93457C29.301 0.887695 32.3478 0.91207 35.3928 0.887695C35.4941 4.69582 37.0391 8.12332 39.4972 10.6621L39.4935 10.6583C42.1391 13.0414 45.5816 14.5864 49.3766 14.8489L49.4291 14.8527V24.2952C45.8441 24.2052 42.4728 23.3783 39.4335 21.9571L39.5872 22.0208C38.1172 21.3139 36.8741 20.5883 35.6928 19.7783L35.7903 19.8421C35.7678 26.6839 35.8128 33.5258 35.7435 40.3433C35.5503 43.8177 34.3953 46.9864 32.5428 49.6321L32.5803 49.5739C29.4828 54.0102 24.4653 56.9221 18.7597 57.0946H18.7335C18.5028 57.1058 18.231 57.1114 17.9572 57.1114C14.7135 57.1114 11.6816 56.2077 9.09785 54.6383L9.17285 54.6814C4.47035 51.8521 1.2266 47.0108 0.626599 41.3802L0.619099 41.3033C0.572224 40.1314 0.549724 38.9596 0.596599 37.8121C1.51535 28.8514 9.02285 21.9196 18.1485 21.9196C19.1741 21.9196 20.1791 22.0077 21.156 22.1746L21.051 22.1596C21.0978 25.6264 20.9572 29.0952 20.9572 32.5621C20.1641 32.2752 19.2491 32.1083 18.2947 32.1083C14.7922 32.1083 11.8128 34.3471 10.7104 37.4727L10.6935 37.5289C10.4441 38.3296 10.2997 39.2502 10.2997 40.2027C10.2997 40.5889 10.3241 40.9714 10.3691 41.3464L10.3653 41.3014C10.9879 45.1377 14.2766 48.0327 18.2422 48.0327C18.3566 48.0327 18.4691 48.0308 18.5816 48.0252H18.5647C21.3078 47.9427 23.6891 46.4671 25.0353 44.2864L25.0541 44.2527C25.5547 43.5552 25.8978 42.7114 26.0122 41.7946L26.0141 41.7683C26.2485 37.5739 26.1547 33.4039 26.1772 29.2096C26.1997 19.7671 26.1547 10.3471 26.2241 0.928945L26.2316 0.93457Z" fill="#E9E7E4"/>
</svg>
